<svg height="16" viewBox="0 0 16 16" width="16" xmlns="http://www.w3.org/2000/svg"><path d="m2 14h3v-5h6v-1h-7.0494338z" fill="#bbb" fill-rule="evenodd"/><g transform="translate(-1 -1037.4)"><path d="m6 1-1 1-1 9h-2v3h2l1-5h7v1-5h3v-2c0-1.1045695-.895431-2-2-2z" fill="#e0e0e0" transform="translate(0 1036.4)"/><path d="m6 1c-1.1046 0-2 .89543-2 2v7h-3v3c0 1.1046.89543 2 2 2s2-.89543 2-2v-10c0-.55228.44772-1 1-1s1 .44772 1 1v3h5v-1h-4v-2c0-1.1046-.89543-2-2-2zm-4 10h2v2c0 .55228-.44772 1-1 1s-1-.44772-1-1z" fill="#b4b4b4" transform="translate(0 1036.4)"/><circle cx="3" cy="1048.4" fill="#e0e0e0" r="0"/></g><path d="m2.0001832 14.000023h3v-5h6.0000008v-1h-7.0494346z" fill="#999" fill-rule="evenodd"/><g transform="translate(-.999817 -1037.4)"><path d="m6 1-1 1-1 9h-2v3h2l1-5h7v1-5h3v-2c0-1.1045695-.895431-2-2-2z" fill="#e0e0e0" transform="translate(0 1036.4)"/><path d="m6 1c-1.1046 0-2 .89543-2 2v7h-3v3c0 1.1046.89543 2 2 2s2-.89543 2-2v-10c0-.55228.44772-1 1-1s1 .44772 1 1v3h5v-1h-4v-2c0-1.1046-.89543-2-2-2zm-4 10h2v2c0 .55228-.44772 1-1 1s-1-.44772-1-1z" fill="#b4b4b4" transform="translate(0 1036.4)"/><circle cx="3" cy="1048.4" fill="#e0e0e0" r="0"/></g><g fill="#99ffa4" opacity=".143662" transform="matrix(.97691526 0 0 1 6.090144 -1033.0482)"><circle cx="3" cy="1039.4" fill="#99ffa4" r="0"/><path d="m13.849999 1046.4c-.768122-.0001-1.477943.3811-1.862003 1-.383995.6189-.32975 1.427.01915 2 .359195.5899 1.842856.5156 1.842856 1l-2.149625.1v1.9h2.149625c.768122.0002 1.477944-.381 1.862005-1 .383994-.6188.329749-1.427-.01915-2-.359196-.5899-1.842858-.5182-1.842858-1l2.149625-.1v-1.9z" fill="#9effa9" stroke-width="1.03673"/></g><g fill="#9effaa"><path d="m12 11v5h1v-5z"/><path d="m14 11v5h1v-5z"/><path d="m11 12v1h5v-1z"/><path d="m11 14v1h5v-1z"/></g><path d="m9 10c-1.6569 0-3 1.3431-3 3s1.3431 3 3 3h1v-2h-1c-.55228 0-1-.4478-1-1 0-.5523.44772-1 1-1h1v-2z" fill="#9effa9"/></svg>