<?xml version="1.0" encoding="UTF-8" standalone="no"?>
<svg
   xmlns:dc="http://purl.org/dc/elements/1.1/"
   xmlns:cc="http://creativecommons.org/ns#"
   xmlns:rdf="http://www.w3.org/1999/02/22-rdf-syntax-ns#"
   xmlns:svg="http://www.w3.org/2000/svg"
   xmlns="http://www.w3.org/2000/svg"
   xmlns:sodipodi="http://sodipodi.sourceforge.net/DTD/sodipodi-0.dtd"
   xmlns:inkscape="http://www.inkscape.org/namespaces/inkscape"
   inkscape:version="1.0 (4035a4fb49, 2020-05-01)"
   sodipodi:docname="CSharpScript.svg"
   id="svg6"
   viewBox="0 0 16 16"
   version="1.1"
   height="16"
   width="16">
  <metadata
     id="metadata12">
    <rdf:RDF>
      <cc:Work
         rdf:about="">
        <dc:format>image/svg+xml</dc:format>
        <dc:type
           rdf:resource="http://purl.org/dc/dcmitype/StillImage" />
      </cc:Work>
    </rdf:RDF>
  </metadata>
  <defs
     id="defs10" />
  <sodipodi:namedview
     inkscape:current-layer="layer2"
     inkscape:window-maximized="0"
     inkscape:window-y="26"
     inkscape:window-x="0"
     inkscape:cy="10.262868"
     inkscape:cx="5.0310161"
     inkscape:zoom="43.9375"
     showgrid="false"
     id="namedview8"
     inkscape:window-height="874"
     inkscape:window-width="1600"
     inkscape:pageshadow="2"
     inkscape:pageopacity="0"
     guidetolerance="10"
     gridtolerance="10"
     objecttolerance="10"
     borderopacity="1"
     bordercolor="#666666"
     pagecolor="#ffffff" />
  <g
     inkscape:label="papel"
     id="layer1"
     inkscape:groupmode="layer">
    <g
       transform="translate(-1,-1037.4)"
       id="g8">
      <path
         sodipodi:nodetypes="cccccccccccssc"
         d="M 6,1 5,2 v 9 H 2 v 3 l 1,1 h 3 v -5 h 6 V 5 h 3 V 3 C 15,1.8954305 14.104569,1 13,1 Z"
         fill="#e0e0e0"
         transform="translate(0,1036.4)"
         id="path2-3" />
      <path
         transform="translate(0,1036.4)"
         d="M 6,1 C 4.8954,1 4,1.89543 4,3 v 7 H 1 v 3 c 0,1.1046 0.89543,2 2,2 1.10457,0 2,-0.89543 2,-2 V 3 C 5,2.44772 5.44772,2 6,2 6.55228,2 7,2.44772 7,3 v 3 h 5 V 5 H 8 V 3 C 8,1.8954 7.10457,1 6,1 Z M 2,11 h 2 v 2 C 4,13.55228 3.55228,14 3,14 2.44772,14 2,13.55228 2,13 Z"
         fill="#b4b4b4"
         id="path4" />
      <circle
         r="0"
         cx="3"
         cy="1048.4"
         fill="#e0e0e0"
         id="circle6" />
    </g>
  </g>
  <g
     inkscape:label="cs"
     id="layer2"
     inkscape:groupmode="layer">
    <g
       id="g4"
       transform="translate(-6,-1037.4)">
      <path
         style="fill:#c3ffa8;fill-opacity:1"
         sodipodi:nodetypes="sssccszsccsccaczccccaczccc"
         id="path2"
         fill="#e0e0e0"
         d="m 14.918708,1047.4 c -1.6569,0 -2.918708,1.3431 -2.918708,3 0,1.6569 1.261808,3 2.918708,3 h 1 v -1.65 h -1.018854 c -0.676156,0 -1.249854,-0.4478 -1.249854,-1.35 0,-0.9022 0.572079,-1.4165 1.25,-1.35 h 1.019 l -2.92e-4,-1.65 z m 5,0 c -0.71466,-1e-4 -1.3751,0.3811 -1.7324,1 -0.35727,0.6188 -0.313139,1.3341 0,1.875 0.259926,0.449 1.349692,0.775 1.349692,0.775 0,0 1.134957,-0.01 0.983,0.6 -0.151957,0.6073 -2.6,0.15 -2.6,0.15 l -2.92e-4,1.6 h 2 c 0.71466,10e-5 1.3751,-0.3811 1.7324,-1 0.35727,-0.6188 0.313175,-1.3341 0,-1.875 -0.260016,-0.4491 -1.350108,-0.775 -1.350108,-0.775 0,0 -1.134059,0.01 -0.982,-0.6 0.152059,-0.6071 2.6,-0.15 2.6,-0.15 l -2.92e-4,-1.6 z" />
    </g>
  </g>
</svg>
