<svg height="16" viewBox="0 0 16 16" width="16" xmlns="http://www.w3.org/2000/svg"><path d="m14.918708 1047.4c-1.6569 0-2.918708 1.3431-2.918708 3s1.261808 3 2.918708 3h1v-1.65h-1.018854c-.676156 0-1.249854-.4478-1.249854-1.35s.572079-1.4165 1.25-1.35h1.019l-.000292-1.65zm5 0c-.71466-.0001-1.3751.3811-1.7324 1-.35727.6188-.313139 1.3341 0 1.875.259926.449 1.349692.775 1.349692.775s1.134957-.01.983.6c-.151957.6073-2.6.15-2.6.15l-.000292 1.6h2c.71466.0001 1.3751-.3811 1.7324-1 .35727-.6188.313175-1.3341 0-1.875-.260016-.4491-1.350108-.775-1.350108-.775s-1.134059.01-.982-.6c.152059-.6071 2.6-.15 2.6-.15l-.000292-1.6z" fill="#c3ffa8" transform="translate(-6 -1037.4)"/><path d="m2 14h3v-5h6v-1h-7.0494338z" fill="#d6d6d6" fill-rule="evenodd"/><g transform="translate(-1 -1037.4)"><path d="m6 1-1 1-1 9h-2v3h2l1-5h7v1-5h3v-2c0-1.1045695-.895431-2-2-2z" fill="#e0e0e0" transform="translate(0 1036.4)"/><path d="m6 1c-1.1046 0-2 .89543-2 2v7h-3v3c0 1.1046.89543 2 2 2s2-.89543 2-2v-10c0-.55228.44772-1 1-1s1 .44772 1 1v3h5v-1h-4v-2c0-1.1046-.89543-2-2-2zm-4 10h2v2c0 .55228-.44772 1-1 1s-1-.44772-1-1z" fill="#b4b4b4" transform="translate(0 1036.4)"/><circle cx="3" cy="1048.4" fill="#e0e0e0" r="0"/></g></svg>