<svg height="16" viewBox="0 0 16 16" width="16" xmlns="http://www.w3.org/2000/svg"><path d="m6 10v6h1.92v-4c.5301936 0 .96.6477.96 1.2v2.8h1.92v-2.7c0-1.6569-1.2894202-3.3-2.88-3.3z" fill="#ffc38a" stroke-width=".979796"/><path d="m2 13.999965h3v-4.9999997h6v-1h-7.0494338z" fill="#939393" fill-rule="evenodd"/><g transform="translate(-1 -1037.4)"><path d="m6 1-1 1-1 9h-2v3h2l1-5h7v1-5h3v-2c0-1.1045695-.895431-2-2-2z" fill="#e0e0e0" transform="translate(0 1036.4)"/><path d="m6 1c-1.1046 0-2 .89543-2 2v7h-3v3c0 1.1046.89543 2 2 2s2-.89543 2-2v-10c0-.55228.44772-1 1-1s1 .44772 1 1v3h5v-1h-4v-2c0-1.1046-.89543-2-2-2zm-4 10h2v2c0 .55228-.44772 1-1 1s-1-.44772-1-1z" fill="#b4b4b4" transform="translate(0 1036.4)"/><circle cx="3" cy="1048.4" fill="#e0e0e0" r="0"/></g><g fill="#ffc38a" transform="matrix(.97674424 0 0 1 .942453 -1030.6733)"><circle cx="3" cy="1039.4" r="0"/><path d="m13.266059 1040.6733c-.768122-.0001-1.477943.3811-1.862003 1-.383995.6189-.32975 1.427.01915 2 .359195.5899 1.842856.5156 1.842856 1l-2.150003.1.000378 1.9h2.149625c.768122.0002 1.477944-.381 1.862005-1 .383994-.6188.329749-1.427-.01915-2-.359196-.5899-1.842858-.5182-1.842858-1l2.15-.1-.000375-1.9z" stroke-width="1.03673"/></g><path d="m2 14.000023h3v-5h6.000001v-1h-7.0494348z" fill="#999" fill-rule="evenodd"/><g transform="translate(-1 -1037.4)"><path d="m6 1-1 1-1 9h-2v3h2l1-5h7v1-5h3v-2c0-1.1045695-.895431-2-2-2z" fill="#e0e0e0" transform="translate(0 1036.4)"/><path d="m6 1c-1.1046 0-2 .89543-2 2v7h-3v3c0 1.1046.89543 2 2 2s2-.89543 2-2v-10c0-.55228.44772-1 1-1s1 .44772 1 1v3h5v-1h-4v-2c0-1.1046-.89543-2-2-2zm-4 10h2v2c0 .55228-.44772 1-1 1s-1-.44772-1-1z" fill="#b4b4b4" transform="translate(0 1036.4)"/><circle cx="3" cy="1048.4" fill="#e0e0e0" r="0"/></g></svg>