<svg height="16" viewBox="0 0 16 16" width="16" xmlns="http://www.w3.org/2000/svg"><g fill="#e0e0e0"><path d="m3 1c-1.1046 0-2 .8954-2 2v1h14v-1c0-1.1046-.89543-2-2-2zm9 1h1v1h-1zm-11 3v8c0 1.1046.89543 2 2 2h10c1.1046 0 2-.8954 2-2v-8zm5.5722656 1h3.9980464c.631021.0000195 1.142559.5115576 1.142579 1.1425781v1.1425781h-3.9980472v-1.1425781c0-.6310659-.5115295-1.1425781-1.1425782-1.1425781zm0 .5722656c.3155215 0 .5703125.2558199.5703125.5703125v1.7148438h2.8574219v3.9980471c-.00002.63102-.511558 1.142558-1.1425781 1.142578h-4c.6310487 0 1.1425781-.511529 1.1425781-1.142578v-5.7128909c0-.3157599.2567441-.5703125.5722656-.5703125zm-2.2851562 5.1406254h1.1425781v1.142578c0 .315522-.2567441.572265-.5722656.572265s-.5703177-.268684-.5703177-.572291z"/><circle cx="-23.915255" cy="3.118624" r="0"/></g></svg>